# xmcd CD database file
#
# Track frame offsets:
#	150
#	24686
#	45837
#	65343
#	83780
#	99890
#	116322
#	137041
#	157416
#	175115
#	197878
#	216793
#	238581
#	256088
#
# Disc length: 3655 seconds
#
# Revision: 0
# Processed by: cddbd v1.5.2PL0 Copyright (c) Steve Scherf et al.
# Submitted via: CDex 1.50
#
DISCID=b50e450e
DTITLE=SWR Big Band - Bossa Renova
DYEAR=1900
DGENRE=Jazz
TTITLE0=Aguás de Marco
TTITLE1=Chovendo na roseira
TTITLE2=Blackbird
TTITLE3=Mas que nada
TTITLE4=Modinha
TTITLE5=Perfume de cebola
TTITLE6=Tarde em Itapua
TTITLE7=Tempo de amor
TTITLE8=Vem morena
TTITLE9=Para que chorar
TTITLE10=O morro nao tem vez
TTITLE11=Setembro
TTITLE12=L'habitat de ciel
TTITLE13=Soul Bossa Nova
EXTD=
EXTT0=
EXTT1=
EXTT2=
EXTT3=
EXTT4=
EXTT5=
EXTT6=
EXTT7=
EXTT8=
EXTT9=
EXTT10=
EXTT11=
EXTT12=
EXTT13=
PLAYORDER=
